<svg viewBox="0 0 13076 3286" fill="none" xmlns="http://www.w3.org/2000/svg">
<path d="M4591.8 908H4731.8V1888H4591.8V908ZM4029 1888H3889V908H4029V1888ZM4604.4 1451.2H4015V1329.4H4604.4V1451.2ZM5466.13 1888V1731.2L5459.13 1701.8V1434.4C5459.13 1377.47 5442.33 1333.6 5408.73 1302.8C5376.07 1271.07 5326.6 1255.2 5260.33 1255.2C5216.47 1255.2 5173.53 1262.67 5131.53 1277.6C5089.53 1291.6 5054.07 1310.73 5025.13 1335L4969.13 1234.2C5007.4 1203.4 5053.13 1180.07 5106.33 1164.2C5160.47 1147.4 5216.93 1139 5275.73 1139C5377.47 1139 5455.87 1163.73 5510.93 1213.2C5566 1262.67 5593.53 1338.27 5593.53 1440V1888H5466.13ZM5222.53 1896.4C5167.47 1896.4 5118.93 1887.07 5076.93 1868.4C5035.87 1849.73 5004.13 1824.07 4981.73 1791.4C4959.33 1757.8 4948.13 1720 4948.13 1678C4948.13 1637.87 4957.47 1601.47 4976.13 1568.8C4995.73 1536.13 5027 1510 5069.93 1490.4C5113.8 1470.8 5172.6 1461 5246.33 1461H5481.53V1557.6H5251.93C5184.73 1557.6 5139.47 1568.8 5116.13 1591.2C5092.8 1613.6 5081.13 1640.67 5081.13 1672.4C5081.13 1708.8 5095.6 1738.2 5124.53 1760.6C5153.47 1782.07 5193.6 1792.8 5244.93 1792.8C5295.33 1792.8 5339.2 1781.6 5376.53 1759.2C5414.8 1736.8 5442.33 1704.13 5459.13 1661.2L5485.73 1753.6C5468 1797.47 5436.73 1832.47 5391.93 1858.6C5347.13 1883.8 5290.67 1896.4 5222.53 1896.4ZM6165.65 1896.4C6090.05 1896.4 6022.38 1880.07 5962.65 1847.4C5903.85 1814.73 5857.65 1769.93 5824.05 1713C5790.45 1656.07 5773.65 1590.73 5773.65 1517C5773.65 1443.27 5790.45 1377.93 5824.05 1321C5857.65 1264.07 5903.85 1219.73 5962.65 1188C6022.38 1155.33 6090.05 1139 6165.65 1139C6232.85 1139 6292.58 1152.53 6344.85 1179.6C6398.05 1205.73 6439.12 1244.93 6468.05 1297.2L6365.85 1363C6341.58 1326.6 6311.72 1300 6276.25 1283.2C6241.72 1265.47 6204.38 1256.6 6164.25 1256.6C6115.72 1256.6 6072.32 1267.33 6034.05 1288.8C5995.78 1310.27 5965.45 1340.6 5943.05 1379.8C5920.65 1418.07 5909.45 1463.8 5909.45 1517C5909.45 1570.2 5920.65 1616.4 5943.05 1655.6C5965.45 1694.8 5995.78 1725.13 6034.05 1746.6C6072.32 1768.07 6115.72 1778.8 6164.25 1778.8C6204.38 1778.8 6241.72 1770.4 6276.25 1753.6C6311.72 1735.87 6341.58 1708.8 6365.85 1672.4L6468.05 1736.8C6439.12 1788.13 6398.05 1827.8 6344.85 1855.8C6292.58 1882.87 6232.85 1896.4 6165.65 1896.4ZM6741.69 1708.8L6744.49 1536.6L7171.49 1146H7333.89L7006.29 1468L6933.49 1529.6L6741.69 1708.8ZM6632.49 1888V849.2H6766.89V1888H6632.49ZM7199.49 1888L6908.29 1526.8L6995.09 1419L7364.69 1888H7199.49ZM7795.5 1896.4C7716.17 1896.4 7646.17 1880.07 7585.5 1847.4C7525.77 1814.73 7479.1 1769.93 7445.5 1713C7412.84 1656.07 7396.5 1590.73 7396.5 1517C7396.5 1443.27 7412.37 1377.93 7444.1 1321C7476.77 1264.07 7521.1 1219.73 7577.1 1188C7634.04 1155.33 7697.97 1139 7768.9 1139C7840.77 1139 7904.24 1154.87 7959.3 1186.6C8014.37 1218.33 8057.3 1263.13 8088.1 1321C8119.84 1377.93 8135.7 1444.67 8135.7 1521.2C8135.7 1526.8 8135.24 1533.33 8134.3 1540.8C8134.3 1548.27 8133.84 1555.27 8132.9 1561.8H7501.5V1465.2H8062.9L8008.3 1498.8C8009.24 1451.2 7999.44 1408.73 7978.9 1371.4C7958.37 1334.07 7929.9 1305.13 7893.5 1284.6C7858.04 1263.13 7816.5 1252.4 7768.9 1252.4C7722.24 1252.4 7680.7 1263.13 7644.3 1284.6C7607.9 1305.13 7579.44 1334.53 7558.9 1372.8C7538.37 1410.13 7528.1 1453.07 7528.1 1501.6V1524C7528.1 1573.47 7539.3 1617.8 7561.7 1657C7585.04 1695.27 7617.24 1725.13 7658.3 1746.6C7699.37 1768.07 7746.5 1778.8 7799.7 1778.8C7843.57 1778.8 7883.24 1771.33 7918.7 1756.4C7955.1 1741.47 7986.84 1719.07 8013.9 1689.2L8088.1 1776C8054.5 1815.2 8012.5 1845.07 7962.1 1865.6C7912.64 1886.13 7857.1 1896.4 7795.5 1896.4ZM8322.33 1888V1146H8451.13V1347.6L8438.53 1297.2C8459.06 1245.87 8493.6 1206.67 8542.13 1179.6C8590.66 1152.53 8650.4 1139 8721.33 1139V1269.2C8715.73 1268.27 8710.13 1267.8 8704.53 1267.8C8699.86 1267.8 8695.2 1267.8 8690.53 1267.8C8618.66 1267.8 8561.73 1289.27 8519.73 1332.2C8477.73 1375.13 8456.73 1437.2 8456.73 1518.4V1888H8322.33ZM9292.13 1888V908H9406.93L10055.1 1713H9994.93V908H10134.9V1888H10020.1L9371.93 1083H9432.13V1888H9292.13ZM10739.1 1896.4C10659.7 1896.4 10589.7 1880.07 10529.1 1847.4C10469.3 1814.73 10422.7 1769.93 10389.1 1713C10356.4 1656.07 10340.1 1590.73 10340.1 1517C10340.1 1443.27 10355.9 1377.93 10387.7 1321C10420.3 1264.07 10464.7 1219.73 10520.7 1188C10577.6 1155.33 10641.5 1139 10712.5 1139C10784.3 1139 10847.8 1154.87 10902.9 1186.6C10957.9 1218.33 11000.9 1263.13 11031.7 1321C11063.4 1377.93 11079.3 1444.67 11079.3 1521.2C11079.3 1526.8 11078.8 1533.33 11077.9 1540.8C11077.9 1548.27 11077.4 1555.27 11076.5 1561.8H10445.1V1465.2H11006.5L10951.9 1498.8C10952.8 1451.2 10943 1408.73 10922.5 1371.4C10901.9 1334.07 10873.5 1305.13 10837.1 1284.6C10801.6 1263.13 10760.1 1252.4 10712.5 1252.4C10665.8 1252.4 10624.3 1263.13 10587.9 1284.6C10551.5 1305.13 10523 1334.53 10502.5 1372.8C10481.9 1410.13 10471.7 1453.07 10471.7 1501.6V1524C10471.7 1573.47 10482.9 1617.8 10505.3 1657C10528.6 1695.27 10560.8 1725.13 10601.9 1746.6C10642.9 1768.07 10690.1 1778.8 10743.3 1778.8C10787.1 1778.8 10826.8 1771.33 10862.3 1756.4C10898.7 1741.47 10930.4 1719.07 10957.5 1689.2L11031.7 1776C10998.1 1815.2 10956.1 1845.07 10905.7 1865.6C10856.2 1886.13 10800.7 1896.4 10739.1 1896.4ZM11409 1888L11133.2 1146H11260.6L11505.6 1818H11445.4L11700.2 1146H11813.6L12062.8 1818H12004L12254.6 1146H12375L12097.8 1888H11969L11735.2 1274.8H11774.4L11537.8 1888H11409ZM12714.6 1896.4C12653 1896.4 12594.2 1888 12538.2 1871.2C12483.2 1854.4 12439.8 1833.87 12408 1809.6L12464 1703.2C12495.8 1724.67 12535 1742.87 12581.6 1757.8C12628.3 1772.73 12675.9 1780.2 12724.4 1780.2C12787 1780.2 12831.8 1771.33 12858.8 1753.6C12886.8 1735.87 12900.8 1711.13 12900.8 1679.4C12900.8 1656.07 12892.4 1637.87 12875.6 1624.8C12858.8 1611.73 12836.4 1601.93 12808.4 1595.4C12781.4 1588.87 12751 1583.27 12717.4 1578.6C12683.8 1573 12650.2 1566.47 12616.6 1559C12583 1550.6 12552.2 1539.4 12524.2 1525.4C12496.2 1510.47 12473.8 1490.4 12457 1465.2C12440.2 1439.07 12431.8 1404.53 12431.8 1361.6C12431.8 1316.8 12444.4 1277.6 12469.6 1244C12494.8 1210.4 12530.3 1184.73 12576 1167C12622.7 1148.33 12677.8 1139 12741.2 1139C12789.8 1139 12838.8 1145.07 12888.2 1157.2C12938.6 1168.4 12979.7 1184.73 13011.4 1206.2L12954 1312.6C12920.4 1290.2 12885.4 1274.8 12849 1266.4C12812.6 1258 12776.2 1253.8 12739.8 1253.8C12681 1253.8 12637.2 1263.6 12608.2 1283.2C12579.3 1301.87 12564.8 1326.13 12564.8 1356C12564.8 1381.2 12573.2 1400.8 12590 1414.8C12607.8 1427.87 12630.2 1438.13 12657.2 1445.6C12685.2 1453.07 12716 1459.6 12749.6 1465.2C12783.2 1469.87 12816.8 1476.4 12850.4 1484.8C12884 1492.27 12914.4 1503 12941.4 1517C12969.4 1531 12991.8 1550.6 13008.6 1575.8C13026.4 1601 13035.2 1634.6 13035.2 1676.6C13035.2 1721.4 13022.2 1760.13 12996 1792.8C12969.9 1825.47 12933 1851.13 12885.4 1869.8C12837.8 1887.53 12780.9 1896.4 12714.6 1896.4Z" fill="#FB651E"/>
<path d="M3924.5 2583V2179.1C3924.5 2142.7 3935 2113.77 3956 2092.3C3977.47 2070.37 4007.8 2059.4 4047 2059.4C4061.47 2059.4 4075.23 2061.27 4088.3 2065C4101.83 2068.27 4113.27 2073.63 4122.6 2081.1L4102.3 2132.2C4095.3 2126.6 4087.37 2122.4 4078.5 2119.6C4069.63 2116.33 4060.3 2114.7 4050.5 2114.7C4030.9 2114.7 4015.97 2120.3 4005.7 2131.5C3995.43 2142.23 3990.3 2158.33 3990.3 2179.8V2229.5L3991.7 2260.3V2583H3924.5ZM3861.5 2267.3V2212H4098.1V2267.3H3861.5ZM4314.91 2587.2C4277.58 2587.2 4244.44 2579.03 4215.51 2562.7C4186.58 2546.37 4163.71 2523.97 4146.91 2495.5C4130.11 2466.57 4121.71 2433.9 4121.71 2397.5C4121.71 2360.63 4130.11 2327.97 4146.91 2299.5C4163.71 2271.03 4186.58 2248.87 4215.51 2233C4244.44 2216.67 4277.58 2208.5 4314.91 2208.5C4351.78 2208.5 4384.68 2216.67 4413.61 2233C4443.01 2248.87 4465.88 2271.03 4482.21 2299.5C4499.01 2327.5 4507.41 2360.17 4507.41 2397.5C4507.41 2434.37 4499.01 2467.03 4482.21 2495.5C4465.88 2523.97 4443.01 2546.37 4413.61 2562.7C4384.68 2579.03 4351.78 2587.2 4314.91 2587.2ZM4314.91 2528.4C4338.71 2528.4 4359.94 2523.03 4378.61 2512.3C4397.74 2501.57 4412.68 2486.4 4423.41 2466.8C4434.14 2446.73 4439.51 2423.63 4439.51 2397.5C4439.51 2370.9 4434.14 2348.03 4423.41 2328.9C4412.68 2309.3 4397.74 2294.13 4378.61 2283.4C4359.94 2272.67 4338.71 2267.3 4314.91 2267.3C4291.11 2267.3 4269.88 2272.67 4251.21 2283.4C4232.54 2294.13 4217.61 2309.3 4206.41 2328.9C4195.21 2348.03 4189.61 2370.9 4189.61 2397.5C4189.61 2423.63 4195.21 2446.73 4206.41 2466.8C4217.61 2486.4 4232.54 2501.57 4251.21 2512.3C4269.88 2523.03 4291.11 2528.4 4314.91 2528.4ZM4600.34 2583V2212H4664.74V2312.8L4658.44 2287.6C4668.71 2261.93 4685.98 2242.33 4710.24 2228.8C4734.51 2215.27 4764.38 2208.5 4799.84 2208.5V2273.6C4797.04 2273.13 4794.24 2272.9 4791.44 2272.9C4789.11 2272.9 4786.78 2272.9 4784.44 2272.9C4748.51 2272.9 4720.04 2283.63 4699.04 2305.1C4678.04 2326.57 4667.54 2357.6 4667.54 2398.2V2583H4600.34ZM5172.74 2583L5010.34 2212H5080.34L5224.54 2548H5190.94L5337.94 2212H5403.74L5241.34 2583H5172.74ZM5521.06 2493.4L5522.46 2407.3L5735.96 2212H5817.16L5653.36 2373L5616.96 2403.8L5521.06 2493.4ZM5466.46 2583V2063.6H5533.66V2583H5466.46ZM5749.96 2583L5604.36 2402.4L5647.76 2348.5L5832.56 2583H5749.96Z" fill="#919191"/>
<rect x="25" y="25" width="3196" height="3236" rx="25" stroke="#FB651E" stroke-width="50"/>
<path d="M1520 2369V1849L1554 1941L960 969H1118L1640 1823H1556L2078 969H2226L1632 1941L1666 1849V2369H1520Z" fill="#FB651E"/>
</svg>
